# xmcd
#
# Track frame offsets: 
#        150
#        14108
#        28519
#        41116
#        53230
#        67359
#        80596
#        95762
#        108359
#        122417
#        136844
#        147167
#        160180
#        172788
#        183293
#        203789
#        221016
#        240944
#        258604
#        273285
#        287606
#        300740
#        316538
#
# Disc length: 4413 seconds
#
# Revision: 1
# Processed by: cddbd v1.5.2PL0 Copyright (c) Steve Scherf et al.
# Submitted via: ExactAudioCopy v0.99pb5
#
DISCID=47113b17
DTITLE=Various Artist - The Arranger's Touch [CD4] - Young Blood
DYEAR=1900
DGENRE=Jazz
TTITLE0=Claude Thornhill and his Orchestra - Anthropology
TTITLE1=Stan Kenton and his Orchestra - Interlude
TTITLE2=Dizzy Gillespie and his Orchestra - Two Bass Hit
TTITLE3=Dizzy Gillespie and his Orchestra - Cubana Be
TTITLE4=Dizzy Gillespie and his Orchestra - Cubana Bop
TTITLE5=Woody Herman and his Orchestra - The Goof and I
TTITLE6=Woody Herman and his Orchestra - Four Brothers
TTITLE7=Dizzy Gillespie and his Orchestra - Good Bait
TTITLE8=Benny Goodman and his Orchestra - Undercurrent Blues
TTITLE9=Gene Krupa and his Orchestra - Lemon Drop
TTITLE10=Miles Davis and his Orchestra - Israel
TTITLE11=Woody Herman and his Orchestra - Not Really the Blues
TTITLE12=Ted Heath and his Orchestra - Father Knickerbopper
TTITLE13=Charlie Barnet and his Orchestra - Really?
TTITLE14=Stan Kenton and his Orchestra - City of Glass (First Movement
TTITLE14=) Entrance Into the City
TTITLE15=Stan Kenton and his Orchestra - City of Glass (First Movement
TTITLE15=) The Structures
TTITLE16=Stan Kenton and his Orchestra - City of Glass (Second Movemen
TTITLE16=t) Dance Before the Mirror
TTITLE17=Stan Kenton and his Orchestra - City of Glass (Third Movement
TTITLE17=) Reflections
TTITLE18=Stan Kenton and his Orchestra - Young Blood
TTITLE19=Stan Kenton and his Orchestra - 23 North, 82 West
TTITLE20=Stan Kenton and his Orchestra -  Invention for Guitar and Tru
TTITLE20=mpet
TTITLE21=Shorty Rogers and his Orchestra - Chiquito Loco
TTITLE22=Gigi Gryce and his Orchestra - Bum's Rush
EXTD=
EXTT0=
EXTT1=
EXTT2=
EXTT3=
EXTT4=
EXTT5=
EXTT6=
EXTT7=
EXTT8=
EXTT9=
EXTT10=
EXTT11=
EXTT12=
EXTT13=
EXTT14=
EXTT15=
EXTT16=
EXTT17=
EXTT18=
EXTT19=
EXTT20=
EXTT21=
EXTT22=
PLAYORDER=
